PathFileType	4	(X/Y/Z)	/Users/niels/Desktop/University/Third Semester/Perception and Action/Exam/Gymnastics Motion Tracking/Code for Gym Tracking/Analyzed Data/Start Salto/stsalto_good_id8_2_Sports2D/stsalto_good_id8_2_Sports2D_px_person00.trc
DataRate	CameraRate	NumFrames	NumMarkers	Units	OrigDataRate	OrigDataStartFrame	OrigNumFrames
29.788732394366196	29.788732394366196	12	22	m	29.788732394366196	0	142
Frame#	Time	Hip			RHip			RKnee			RAnkle			RBigToe			RSmallToe			RHeel			LHip			LKnee			LAnkle			LBigToe			LSmallToe			LHeel			Neck			Head			Nose			RShoulder			RElbow			RWrist			LShoulder			LElbow			LWrist		
		X1	Y1	Z1	X2	Y2	Z2	X3	Y3	Z3	X4	Y4	Z4	X5	Y5	Z5	X6	Y6	Z6	X7	Y7	Z7	X8	Y8	Z8	X9	Y9	Z9	X10	Y10	Z10	X11	Y11	Z11	X12	Y12	Z12	X13	Y13	Z13	X14	Y14	Z14	X15	Y15	Z15	X16	Y16	Z16	X17	Y17	Z17	X18	Y18	Z18	X19	Y19	Z19	X20	Y20	Z20	X21	Y21	Z21	X22	Y22	Z22
0	0.0	0.06212437986075484	-0.4646083094951606	0.0	0.04789732548732614	-0.47457160802418225	0.0	0.18717862691999132	-0.504425014254881	0.0	0.09052614583579412	-0.5939938536467341	0.0	0.13310498107082616	-0.6353042799811277	0.0	0.11889426618085651	-0.6381380010059764	0.0	0.06777530393786664	-0.6067877185451809	0.0	0.08629464305277389	-0.4759859372330241	0.0	0.20566017855338178	-0.5172158689186973	0.0	0.08486064046646725	-0.569816424650927	0.0	0.06775311878159616	-0.608284648570287	0.0	0.07058641482669649	-0.6025834564144242	0.0	0.056448946841352335	-0.5655516421299758	0.0	0.1163190401971342	-0.29406474757404283	0.0	0.1362866952978209	-0.2244970728742303	0.0	0.16467308470803996	-0.2699931972736942	0.0	0.07792130757897699	-0.30405004941411	0.0	0.14464955860707834	-0.30705847842773154	0.0	0.20740049012325842	-0.2545972242880178	0.0	0.15327016871551255	-0.3267576357413564	0.0	0.22850847459448267	-0.342594068984653	0.0	0.2841633874084346	-0.30577495959976075	0.0
1	0.033569739952718676	0.11017755257677864	-0.47219869030959755	0.0	0.09658883549986494	-0.4800104297641749	0.0	0.2353548382518782	-0.5064849724225523	0.0	0.15445329647074985	-0.6063762356255851	0.0	0.19986584300674004	-0.6407578720525893	0.0	0.18593321554212824	-0.64437217430852	0.0	0.13515215767099015	-0.6205436157482775	0.0	0.13290247381334686	-0.478565520654839	0.0	0.25444432089124563	-0.5099339439465379	0.0	0.15650002331469828	-0.5837586931473276	0.0	0.1662016539921116	-0.6169720201444884	0.0	0.16500954014543195	-0.6116931783727527	0.0	0.13146111920914683	-0.5873112632026969	0.0	0.17066480135323928	-0.3055646879687178	0.0	0.19705521521878902	-0.2322567251112195	0.0	0.22059364098926285	-0.27943764945921806	0.0	0.13781285762066386	-0.3128437271413171	0.0	0.20896926160046808	-0.3183914743278876	0.0	0.2702668693252307	-0.266377179665457	0.0	0.20080108688713963	-0.3322957162519142	0.0	0.2794536745144849	-0.34701044205079085	0.0	0.3314476222597615	-0.30592605930029354	0.0
2	0.06713947990543735	0.15859707248906962	-0.4810368271420797	0.0	0.14554611778676949	-0.4871961342414583	0.0	0.28291206061547725	-0.5122537297678895	0.0	0.2205683749110003	-0.6216401155208632	0.0	0.268580829415561	-0.6485826192592961	0.0	0.25513285096649774	-0.6532359433821371	0.0	0.20480138345723634	-0.6373983029989264	0.0	0.18023538019457902	-0.48327369339567505	0.0	0.3030915463830275	-0.5079359990703061	0.0	0.22915215736312217	-0.6000259096684616	0.0	0.2610861038125062	-0.6272354534170728	0.0	0.2568704073065037	-0.6222205167728366	0.0	0.20793653824889358	-0.6104511012540603	0.0	0.2246249144198343	-0.3175593780885183	0.0	0.2570955879047777	-0.24195322753380125	0.0	0.2758369023216389	-0.2903372728937349	0.0	0.19679883127131573	-0.32303953503479527	0.0	0.2723060774848061	-0.3305016523585407	0.0	0.3307127081381558	-0.27852029784176346	0.0	0.2483683543130681	-0.33914692556993414	0.0	0.3299673672335534	-0.3526757213280237	0.0	0.3770051737639409	-0.30729052095619586	0.0
3	0.10070921985815603	0.2077643015722084	-0.49223558452587796	0.0	0.1951786779623128	-0.49749752014861354	0.0	0.32982918719081444	-0.5244628700015758	0.0	0.28932731872030487	-0.6418389974950527	0.0	0.3397241039346999	-0.6607416349290626	0.0	0.3270185922399777	-0.6667856298199638	0.0	0.27709752081195616	-0.6592771920463861	0.0	0.22881137823539674	-0.4917662902260851	0.0	0.35135639251235873	-0.5149256637360035	0.0	0.30264700937732986	-0.6206385832687101	0.0	0.3498950070676719	-0.6410827740167117	0.0	0.34404197557147526	-0.6361560874399744	0.0	0.2857813093320439	-0.636357090173507	0.0	0.27792850712032596	-0.3306705754654229	0.0	0.3157940142759264	-0.2547146908547847	0.0	0.32991983207005615	-0.30362792439063485	0.0	0.2543627917722879	-0.33562505380188773	0.0	0.3340982369732968	-0.3438273084513157	0.0	0.3868872985831347	-0.2911820822937125	0.0	0.29597038891726385	-0.3483549991261475	0.0	0.3798673475599753	-0.3602856587799221	0.0	0.41963450928034945	-0.3107136806919554	0.0
4	0.1342789598108747	0.257893902898356	-0.5066167105679696	0.0	0.24583194340754327	-0.5116931483212177	0.0	0.3764256881579017	-0.5443986146779927	0.0	0.3587082610789426	-0.6677260764662685	0.0	0.4113028368369886	-0.6787135304572447	0.0	0.39949522673112925	-0.6862662305788148	0.0	0.34971338679586567	-0.6865360927389043	0.0	0.27866348914190037	-0.5049796246557842	0.0	0.39880104396833493	-0.5324099512933139	0.0	0.37498775543438934	-0.6469684315613461	0.0	0.4306607245652392	-0.6606217800852847	0.0	0.42431927435551875	-0.6557430367406643	0.0	0.362642401265593	-0.6661577036220719	0.0	0.33016868859767157	-0.34542111368732226	0.0	0.37233347840246844	-0.2705338338635074	0.0	0.38227762780422236	-0.3194569834712248	0.0	0.310121730861621	-0.35090518818160504	0.0	0.3938606630936481	-0.3582235323438596	0.0	0.4373348898225707	-0.304105962804543	0.0	0.34328930036437777	-0.3604407668916316	0.0	0.42896729089080166	-0.369744522689177	0.0	0.45854964964203404	-0.31634196528821834	0.0
5	0.16784869976359337	0.3092109372084835	-0.5242919550042738	0.0	0.29791326701397397	-0.5296490678682011	0.0	0.4228921113701926	-0.5717931749193579	0.0	0.4249580488284666	-0.6987616013186184	0.0	0.4793424007589509	-0.7033854913103978	0.0	0.46840408968371666	-0.7120653831159577	0.0	0.4184589623940522	-0.7182546858681618	0.0	0.32959646619012195	-0.5228028606045566	0.0	0.44493237275325204	-0.5597579365647087	0.0	0.4427791617892495	-0.6792297253863756	0.0	0.5013910942319721	-0.6872138817353832	0.0	0.4952331110822588	-0.6824695480937389	0.0	0.43448247947703406	-0.7001154641911117	0.0	0.3811170641314428	-0.3617674155162754	0.0	0.42604083981052365	-0.2884090553574281	0.0	0.43252703053050934	-0.3371030774857787	0.0	0.3640115617356715	-0.36835535395707586	0.0	0.45131776315062777	-0.37289864766110076	0.0	0.481645625435079	-0.3165171356770229	0.0	0.39002970798290526	-0.37515142020561676	0.0	0.47722130553067266	-0.3802874125814817	0.0	0.4938987841649973	-0.3234737745789996	0.0
6	0.20141843971631207	0.361808545639073	-0.5442230890368404	0.0	0.3516950082124843	-0.549991345438771	0.0	0.46888801616801523	-0.604688029716763	0.0	0.48393681331582933	-0.7331951552954289	0.0	0.5393157123089837	-0.7344321205735296	0.0	0.5290531221695907	-0.7433953475080188	0.0	0.478789498436149	-0.7524770519140247	0.0	0.38121393829020583	-0.5437532951439847	0.0	0.48907599488736764	-0.5942913730902135	0.0	0.5021823169969548	-0.7159371519859048	0.0	0.5602371235130071	-0.7206056077750329	0.0	0.5544595803986572	-0.7160750546131959	0.0	0.4966917850881459	-0.7369697250656214	0.0	0.43085576206498416	-0.3788439205220005	0.0	0.4766859864286461	-0.3066161713737166	0.0	0.480689133660926	-0.354954636805091	0.0	0.4163445637997268	-0.38662755901369394	0.0	0.5065652630176726	-0.3865766663966222	0.0	0.5210705100516824	-0.32732287831450585	0.0	0.43618533729160064	-0.3913440277583644	0.0	0.5247621568467256	-0.39076854282278906	0.0	0.5270826834171165	-0.33089999028773515	0.0
7	0.23498817966903074	0.41517155106873505	-0.563964839931607	0.0	0.40673996327632184	-0.5699122772120371	0.0	0.5132450875364046	-0.6392593625267463	0.0	0.5322510453238238	-0.767837547247923	0.0	0.5874063168789486	-0.7693176945484188	0.0	0.5775781120048153	-0.7775742748410469	0.0	0.5270920929154638	-0.7860698884785305	0.0	0.4326230080355925	-0.5648152599042827	0.0	0.5300682054594384	-0.6313530961967362	0.0	0.5498244036441086	-0.753598432586859	0.0	0.6056240166255706	-0.7580861172673901	0.0	0.6000750524182835	-0.7537862335910703	0.0	0.5452394207816824	-0.7735839250152272	0.0	0.47958355073139824	-0.39495279214013257	0.0	0.5248421907209572	-0.32306901989738607	0.0	0.5273203071233996	-0.3707649334395679	0.0	0.4676078022095412	-0.40358102323680684	0.0	0.5599415763835258	-0.3979181257069216	0.0	0.5586072904572322	-0.3355821676357656	0.0	0.481870063732359	-0.40690473975812824	0.0	0.5717475882448547	-0.39992127061381333	0.0	0.5606975984825591	-0.3374646477492739	0.0
8	0.2685579196217494	0.46783737552090765	-0.5797707311936917	0.0	0.4614928768413788	-0.5853924516402195	0.0	0.5539969568477476	-0.6700969978913263	0.0	0.5682138461495315	-0.7980141600592223	0.0	0.6216037545124578	-0.8029135273027792	0.0	0.6120256391578457	-0.809729918069336	0.0	0.5617709993239642	-0.8147305797548169	0.0	0.48228965211383057	-0.5816983412428799	0.0	0.5663075438480005	-0.6647982939484209	0.0	0.5839031128191846	-0.7870014378642786	0.0	0.6367654917412515	-0.7942523527351172	0.0	0.6311846514592802	-0.7901959821982996	0.0	0.5781703538739481	-0.8052550323965271	0.0	0.5275621629056509	-0.407698166433039	0.0	0.5723503794530193	-0.3358989667266954	0.0	0.5736013913961712	-0.3824483437421049	0.0	0.518321413589909	-0.4164869590280069	0.0	0.6117884679324719	-0.4060650799114423	0.0	0.5985070277765914	-0.3410683227907934	0.0	0.527090362881637	-0.41887457390931343	0.0	0.6181931109816766	-0.40665082084066845	0.0	0.5982024763965885	-0.34248554587069213	0.0
9	0.3021276595744681	0.5174796381867582	-0.5872933688283282	0.0	0.51338855885169	-0.5920765245950284	0.0	0.5888890636648271	-0.6912711544740612	0.0	0.5923975331556297	-0.8183477223402824	0.0	0.6424365484244191	-0.8287779554737382	0.0	0.6329804062545933	-0.833944275285127	0.0	0.5837863146256447	-0.8336709158734483	0.0	0.5282218713437952	-0.5897458932344064	0.0	0.5962430048156114	-0.6881755341508841	0.0	0.6051329352694848	-0.8102482006167507	0.0	0.6546613193448196	-0.8223385518093046	0.0	0.6489286468067172	-0.81854860773235	0.0	0.5968288027677573	-0.8267374611146117	0.0	0.5752063325661391	-0.41431826840603664	0.0	0.6218658057841181	-0.3438843108966401	0.0	0.6209533234325878	-0.3887926779258885	0.0	0.5688842518926692	-0.4226364195536591	0.0	0.6621137980720602	-0.4109586851897828	0.0	0.6449015806516432	-0.34476273690322035	0.0	0.5717737663907833	-0.42402453224469944	0.0	0.6636500438174167	-0.4103735103055871	0.0	0.6428207458476438	-0.3461837176777228	0.0
10	0.33569739952718675	0.5616050420678332	-0.5830410438788015	0.0	0.559619243359256	-0.5867551194641702	0.0	0.6163444329440909	-0.6981491308848937	0.0	0.6072733592972877	-0.8244951421395007	0.0	0.6524796396414843	-0.8417903349567154	0.0	0.6430829713916543	-0.8455394784239535	0.0	0.5961303172570082	-0.8389947283021223	0.0	0.5685512662455704	-0.5854714552310405	0.0	0.6190992959389772	-0.6965748230591102	0.0	0.616596881651782	-0.818579078640577	0.0	0.6622565657847141	-0.8369098550072025	0.0	0.6564785687047539	-0.8333128535047909	0.0	0.6054480609343525	-0.8338236668739027	0.0	0.6229102245170334	-0.41260067937717115	0.0	0.6751042015615318	-0.3465376198933703	0.0	0.6701285730803006	-0.3895474746723209	0.0	0.6193004126587485	-0.4203400671030424	0.0	0.7101677629624507	-0.41328035765767446	0.0	0.6995645872892006	-0.34896865371236513	0.0	0.6159364319747712	-0.4199974177803629	0.0	0.7069180717675311	-0.41130072938909595	0.0	0.695637100415337	-0.35013363282196935	0.0
11	0.3692671394799054	0.5986013357521558	-0.5660251664658966	0.0	0.59831386791544	-0.5687865104092262	0.0	0.636592145028889	-0.6892412781985208	0.0	0.6161003478095178	-0.8150221982948036	0.0	0.654977670878515	-0.8401434761416838	0.0	0.6458059001159507	-0.8427838080046036	0.0	0.6025435253811129	-0.8291587746459078	0.0	0.6022336371905805	-0.5680539090648619	0.0	0.6356026759224238	-0.6884544475841384	0.0	0.6222301873472362	-0.810366244907318	0.0	0.6631714549845688	-0.8360107617173209	0.0	0.657560934075042	-0.8323666362092326	0.0	0.6088574248027322	-0.8249615084625262	0.0	0.6705809354031306	-0.40239708960840176	0.0	0.7313509101256319	-0.3444193904158524	0.0	0.7204828498410113	-0.3855123361702875	0.0	0.6689705456336282	-0.40995138516495055	0.0	0.7543142684481315	-0.41419718897254804	0.0	0.7599968020775296	-0.3566517331906592	0.0	0.6596728392057725	-0.4067143312368936	0.0	0.7461807186286042	-0.4105312515858608	0.0	0.7540449322569969	-0.35702518460124	0.0
